<svg width="21" height="31" viewBox="0 0 21 31" fill="none" xmlns="http://www.w3.org/2000/svg">
<path fill-rule="evenodd" clip-rule="evenodd" d="M10.5305 29.6935C13.0465 29.6935 15.0861 27.6538 15.0861 25.1378C15.0861 22.6218 13.0465 20.5822 10.5305 20.5822C8.01448 20.5822 5.97486 22.6218 5.97486 25.1378C5.97486 27.6538 8.01448 29.6935 10.5305 29.6935ZM10.5305 30.6935C13.5988 30.6935 16.0861 28.2061 16.0861 25.1378C16.0861 24.77 16.0504 24.4104 15.9821 24.0625C16.1167 24.1018 16.258 24.1226 16.4025 24.1226H18.0447C17.965 23.78 17.8625 23.4461 17.739 23.1226H16.4025C16.208 23.1226 16.0312 23.0098 15.9492 22.8334L14.2028 19.0781C13.768 18.8408 13.3079 18.644 12.8277 18.4926L13.844 20.6781C12.9189 19.9896 11.7723 19.5822 10.5305 19.5822C9.28872 19.5822 8.14212 19.9896 7.21703 20.678L8.24518 18.4671C7.76977 18.6111 7.31367 18.7995 6.88172 19.0276L5.11185 22.8334C5.02983 23.0098 4.85298 23.1226 4.65848 23.1226H3.25135C3.12784 23.4461 3.02537 23.78 2.94563 24.1226H4.65848C4.80302 24.1226 4.94432 24.1018 5.07884 24.0626C5.01062 24.4104 4.97486 24.77 4.97486 25.1378C4.97486 28.2061 7.4622 30.6935 10.5305 30.6935ZM1.93728 24.049C1.14755 23.7914 0.682149 22.9014 1.01105 22.0705L9.1358 1.54485C9.63609 0.280945 11.4249 0.280951 11.9252 1.54485L20.05 22.0705C20.388 22.9245 19.887 23.8408 19.0573 24.0689C18.9878 23.7398 18.8998 23.4176 18.7944 23.1033C19.0679 23.0249 19.2321 22.7215 19.1202 22.4386L10.9954 1.9129C10.8286 1.4916 10.2324 1.4916 10.0656 1.9129L1.94085 22.4386C1.83777 22.699 1.96877 22.9768 2.20362 23.0805C2.09699 23.3956 2.00783 23.7189 1.93728 24.049ZM7.52042 17.6541C7.9293 17.5063 8.35232 17.3882 8.78693 17.3022L10.0771 14.5277C10.2564 14.1422 10.8046 14.1422 10.9839 14.5277L12.2814 17.318C12.7189 17.4087 13.1443 17.5321 13.5551 17.6854L11.8906 14.1061C11.3527 12.9494 9.70827 12.9494 9.17038 14.1061L7.52042 17.6541Z" fill="#FFB053"/>
</svg>
