<svg width="23" height="33" viewBox="0 0 23 33" fill="none" xmlns="http://www.w3.org/2000/svg">
<path fill-rule="evenodd" clip-rule="evenodd" d="M11.5305 9.59694C10.3766 9.59694 9.35518 9.02951 8.73013 8.15845L8.37872 7.40279C8.33091 7.29998 8.27773 7.20077 8.21961 7.10543C8.13267 6.80282 8.08611 6.48313 8.08611 6.15257C8.08611 4.25029 9.62821 2.70819 11.5305 2.70819C13.4328 2.70819 14.9749 4.25029 14.9749 6.15257C14.9749 6.48318 14.9283 6.80291 14.8413 7.10556C14.7832 7.20086 14.7301 7.30002 14.6823 7.40279L14.3309 8.15829C13.7059 9.02944 12.6845 9.59694 11.5305 9.59694ZM11.5305 0.596941C8.61913 0.596941 6.23082 2.83634 5.99413 5.68657C5.88352 5.67414 5.77149 5.6678 5.65848 5.6678H3.74841C3.88265 9.67741 7.06224 12.9153 11.0477 13.1422L10.3193 11.5758C10.7092 11.6625 11.1145 11.7082 11.5305 11.7082C11.9465 11.7082 12.3518 11.6625 12.7417 11.5758L12.0154 13.1377C15.9667 12.8759 19.1085 9.65298 19.2419 5.6678H17.4025C17.2895 5.6678 17.1775 5.67415 17.0668 5.68657C16.8301 2.83634 14.4418 0.596941 11.5305 0.596941ZM20.2406 5.72385C22.0291 6.07278 23.1499 7.99025 22.4447 9.77194L14.3199 30.2976C13.3193 32.8254 9.74168 32.8254 8.74109 30.2976L0.616334 9.77194C-0.0796489 8.01367 1.00277 6.12314 2.75028 5.73841C2.84567 8.27506 4.02074 10.5354 5.82926 12.0733L11.5305 26.4764L17.2685 11.9804C19.0194 10.4422 20.151 8.21581 20.2406 5.72385ZM16.7789 12.3803L14.2508 17.8168C13.175 20.1302 9.88603 20.1301 8.81026 17.8168L6.31968 12.4611C7.76918 13.5259 9.55872 14.1549 11.4952 14.1549C11.503 14.1549 11.5108 14.1549 11.5187 14.1548L11.5305 14.1803L11.5424 14.1547C13.5091 14.1444 15.3223 13.4852 16.7789 12.3803Z" fill="white"/>
</svg>
